<?xml version="1.0" encoding="utf-8"?>
<!-- Generator: Adobe Illustrator 16.0.0, SVG Export Plug-In . SVG Version: 6.00 Build 0)  -->
<!DOCTYPE svg PUBLIC "-//W3C//DTD SVG 1.1//EN" "http://www.w3.org/Graphics/SVG/1.1/DTD/svg11.dtd">
<svg version="1.1" id="Layer_1" xmlns="http://www.w3.org/2000/svg" xmlns:xlink="http://www.w3.org/1999/xlink" x="0px" y="0px"
	 width="24px" height="24px" viewBox="0 0 24 24" enable-background="new 0 0 24 24" xml:space="preserve">
<path fill-rule="evenodd" clip-rule="evenodd" d="M22.506,21v0.016L17,15.511V19c0,1.105-0.896,2-2,2h-1.5H3H2c-1.104,0-2-0.895-2-2
	v-1l0,0V6l0,0V5c0-1.104,0.896-1.999,2-1.999h1l0,0h10.5l0,0H15c1.104,0,2,0.895,2,1.999v3.516l5.5-5.5V3.001
	c0.828,0,1.5,0.671,1.5,1.499v15C24,20.327,23.331,20.996,22.506,21z"/>
</svg>
