<?xml version="1.0" encoding="utf-8"?>
<!-- Generator: Adobe Illustrator 16.0.0, SVG Export Plug-In . SVG Version: 6.00 Build 0)  -->
<!DOCTYPE svg PUBLIC "-//W3C//DTD SVG 1.1//EN" "http://www.w3.org/Graphics/SVG/1.1/DTD/svg11.dtd">
<svg version="1.1" id="Layer_1" xmlns="http://www.w3.org/2000/svg" xmlns:xlink="http://www.w3.org/1999/xlink" x="0px" y="0px"
	 width="16px" height="16px" viewBox="0 0 16 16" enable-background="new 0 0 16 16" xml:space="preserve">
<path fill-rule="evenodd" clip-rule="evenodd" d="M7.152,12.374l4.521,3.54c0.074,0.058,0.119,0.087,0.162,0.087
	c0.125,0,0.163-0.086,0.163-0.227v-3.349c0-0.236,0.156-0.425,0.365-0.425L14.007,12c1.458,0,1.99-0.959,1.99-0.959V1.039
	c0,0-0.572-1.039-1.999-1.039H2C0.542,0,0,1.039,0,1.039v10.002C0,11.041,0.643,12,2.007,12h4C6.007,12,6.844,12.024,7.152,12.374z"
	/>
</svg>
