<?xml version="1.0" encoding="utf-8"?>
<!-- Generator: Adobe Illustrator 16.0.0, SVG Export Plug-In . SVG Version: 6.00 Build 0)  -->
<!DOCTYPE svg PUBLIC "-//W3C//DTD SVG 1.1//EN" "http://www.w3.org/Graphics/SVG/1.1/DTD/svg11.dtd">
<svg version="1.1" id="Layer_1" xmlns="http://www.w3.org/2000/svg" xmlns:xlink="http://www.w3.org/1999/xlink" x="0px" y="0px"
	 width="16px" height="16px" viewBox="0 0 16 16" enable-background="new 0 0 16 16" xml:space="preserve">
<g>
	<g>
		<path fill-rule="evenodd" clip-rule="evenodd" d="M14,3h-2.31l-0.653-1.416C10.883,1.252,10.332,1,9.796,1H5.971
			C5.435,1,4.884,1.252,4.73,1.584L4.076,3H2C0.489,3,0,4,0,4v10c0,0,0.521,1,2,1h12c1.511,0,2-1,2-1V4C16,4,15.542,3,14,3z M8,13
			c-2.209,0-4-1.79-4-3.999S5.791,5,8,5s4,1.792,4,4.001S10.209,13,8,13z M8,6.5C6.619,6.5,5.5,7.619,5.5,9s1.119,2.5,2.5,2.5
			s2.5-1.119,2.5-2.5S9.381,6.5,8,6.5z"/>
	</g>
</g>
</svg>
