<?xml version="1.0" encoding="utf-8"?>
<!-- Generator: Adobe Illustrator 16.0.0, SVG Export Plug-In . SVG Version: 6.00 Build 0)  -->
<!DOCTYPE svg PUBLIC "-//W3C//DTD SVG 1.1//EN" "http://www.w3.org/Graphics/SVG/1.1/DTD/svg11.dtd">
<svg version="1.1" id="Layer_1" xmlns="http://www.w3.org/2000/svg" xmlns:xlink="http://www.w3.org/1999/xlink" x="0px" y="0px"
	 width="16px" height="16px" viewBox="0 0 16 16" enable-background="new 0 0 16 16" xml:space="preserve">
<g>
	<g>
		<path fill-rule="evenodd" clip-rule="evenodd" d="M8-0.001C3.582-0.001,0,3.581,0,8c0,4.418,3.582,8,8,8c4.418,0,8-3.582,8-8
			C16,3.581,12.418-0.001,8-0.001z M13.17,6.374l-5.739,5.737c-0.117,0.118-0.308,0.118-0.424,0l-0.848-0.856
			c-0.116-0.117-0.308-0.31-0.424-0.428L3.761,8.753C3.703,8.694,3.672,8.612,3.672,8.535s0.031-0.151,0.089-0.21l0.865-0.78
			c0.059-0.06,0.137-0.089,0.214-0.088c0.076,0.001,0.152,0.03,0.21,0.088l1.957,1.997c0.117,0.119,0.307,0.119,0.424,0l4.467-4.453
			c0.116-0.118,0.308-0.118,0.424,0l0.849,0.856C13.287,6.062,13.287,6.256,13.17,6.374z"/>
	</g>
</g>
</svg>
