<?xml version="1.0" encoding="utf-8"?>
<!-- Generator: Adobe Illustrator 16.0.0, SVG Export Plug-In . SVG Version: 6.00 Build 0)  -->
<!DOCTYPE svg PUBLIC "-//W3C//DTD SVG 1.1//EN" "http://www.w3.org/Graphics/SVG/1.1/DTD/svg11.dtd">
<svg version="1.1" id="Layer_1" xmlns="http://www.w3.org/2000/svg" xmlns:xlink="http://www.w3.org/1999/xlink" x="0px" y="0px"
	 width="16px" height="16px" viewBox="0 0 16 16" enable-background="new 0 0 16 16" xml:space="preserve">
<path fill-rule="evenodd" clip-rule="evenodd" d="M14.441,2.146c-0.193-0.196-0.512-0.196-0.705,0L6.296,9.56
	c-0.195,0.197-0.513,0.197-0.707,0L2.331,6.235c-0.097-0.097-0.223-0.146-0.35-0.147C1.852,6.087,1.722,6.136,1.624,6.235
	l-1.44,1.297C0.088,7.631,0.036,7.754,0.036,7.883s0.052,0.266,0.148,0.362l3.287,3.452c0.194,0.197,0.513,0.518,0.707,0.713
	l1.413,1.426c0.194,0.195,0.512,0.195,0.707,0l9.558-9.552c0.194-0.194,0.194-0.517,0-0.713L14.441,2.146z"/>
</svg>
