<?xml version="1.0" encoding="utf-8"?>
<!-- Generator: Adobe Illustrator 16.0.0, SVG Export Plug-In . SVG Version: 6.00 Build 0)  -->
<!DOCTYPE svg PUBLIC "-//W3C//DTD SVG 1.1//EN" "http://www.w3.org/Graphics/SVG/1.1/DTD/svg11.dtd">
<svg version="1.1" id="Layer_1" xmlns="http://www.w3.org/2000/svg" xmlns:xlink="http://www.w3.org/1999/xlink" x="0px" y="0px"
	 width="16px" height="16px" viewBox="0 0 16 16" enable-background="new 0 0 16 16" xml:space="preserve">
<path d="M13.872,2.56c0.195,0.194,0.195,0.512,0,0.706L9.989,7.149c-0.193,0.193-0.193,0.511,0,0.705l3.881,3.885
	c0.195,0.193,0.195,0.511,0,0.706l-1.414,1.409c-0.193,0.193-0.511,0.193-0.706,0L7.871,9.971c-0.194-0.193-0.512-0.193-0.706,0
	l-3.883,3.882c-0.194,0.192-0.512,0.192-0.706,0l-1.412-1.413c-0.194-0.193-0.194-0.512,0-0.705l3.884-3.882
	c0.194-0.195,0.194-0.511,0-0.706L1.167,3.262c-0.194-0.195-0.194-0.513,0-0.706l1.414-1.411c0.194-0.194,0.512-0.194,0.706,0.001
	l3.88,3.883C7.36,5.223,7.678,5.223,7.872,5.03l3.882-3.882c0.195-0.194,0.513-0.194,0.706,0L13.872,2.56z"/>
</svg>
