<?xml version="1.0" encoding="utf-8"?>
<!-- Generator: Adobe Illustrator 16.0.0, SVG Export Plug-In . SVG Version: 6.00 Build 0)  -->
<!DOCTYPE svg PUBLIC "-//W3C//DTD SVG 1.1//EN" "http://www.w3.org/Graphics/SVG/1.1/DTD/svg11.dtd">
<svg version="1.1" id="Layer_1" xmlns="http://www.w3.org/2000/svg" xmlns:xlink="http://www.w3.org/1999/xlink" x="0px" y="0px"
	 width="16px" height="16px" viewBox="0 0 16 16" enable-background="new 0 0 16 16" xml:space="preserve">
<g>
	<g>
		<path fill-rule="evenodd" clip-rule="evenodd" d="M7.986,2.486C2.691,2.486-0.027,8-0.027,8s2.052,5.516,8.014,5.516
			c5.399,0,8.014-5.494,8.014-5.494S13.365,2.486,7.986,2.486z M7.999,11.447c-1.937,0-3.336-1.508-3.336-3.447
			c0-1.938,1.399-3.445,3.336-3.445c1.936,0,3.335,1.507,3.335,3.445C11.334,9.939,9.935,11.447,7.999,11.447z M7.999,5.933
			C6.893,5.935,5.997,6.894,5.997,8c0,1.107,0.896,2.069,2.002,2.069S10,9.107,10,8S9.105,5.93,7.999,5.933z"/>
	</g>
</g>
</svg>
