<?xml version="1.0" encoding="utf-8"?>
<!-- Generator: Adobe Illustrator 16.0.0, SVG Export Plug-In . SVG Version: 6.00 Build 0)  -->
<!DOCTYPE svg PUBLIC "-//W3C//DTD SVG 1.1//EN" "http://www.w3.org/Graphics/SVG/1.1/DTD/svg11.dtd">
<svg version="1.1" id="Layer_1" xmlns="http://www.w3.org/2000/svg" xmlns:xlink="http://www.w3.org/1999/xlink" x="0px" y="0px"
	 width="16px" height="16px" viewBox="0 0 16 16" enable-background="new 0 0 16 16" xml:space="preserve">
<path d="M8,8.242c-1.373,0-2.486-1.152-2.486-2.575S6.627,3.091,8,3.091s2.486,1.153,2.486,2.576S9.373,8.242,8,8.242 M8-0.012
	c-3.039,0-5.502,2.551-5.502,5.7c0,2.973,2.492,6.808,4.156,8.675C7.276,15.061,8,16,8,16s0.778-0.944,1.445-1.662
	c1.662-1.789,4.057-5.382,4.057-8.649C13.502,2.539,11.039-0.012,8-0.012"/>
</svg>
