<?xml version="1.0" encoding="utf-8"?>
<!-- Generator: Adobe Illustrator 16.0.0, SVG Export Plug-In . SVG Version: 6.00 Build 0)  -->
<!DOCTYPE svg PUBLIC "-//W3C//DTD SVG 1.1//EN" "http://www.w3.org/Graphics/SVG/1.1/DTD/svg11.dtd">
<svg version="1.1" id="Layer_1" xmlns="http://www.w3.org/2000/svg" xmlns:xlink="http://www.w3.org/1999/xlink" x="0px" y="0px"
	 width="16px" height="16px" viewBox="0 0 16 16" enable-background="new 0 0 16 16" xml:space="preserve">
<path fill-rule="evenodd" clip-rule="evenodd" d="M14,16.001H2c-0.553,0-1-0.448-1-1.001V8c0-0.552,0.447-0.999,1-0.999h1V5
	c0-2.761,2.238-5,5-5s5,2.239,5,5v2.001h1c0.553,0,1,0.447,1,0.999v7C15,15.553,14.553,16.001,14,16.001z M11,5
	c0-1.656-1.343-2.999-3-2.999S5,3.344,5,5v2.001h6V5z"/>
</svg>
