<?xml version="1.0" encoding="utf-8"?>
<!-- Generator: Adobe Illustrator 16.0.0, SVG Export Plug-In . SVG Version: 6.00 Build 0)  -->
<!DOCTYPE svg PUBLIC "-//W3C//DTD SVG 1.1//EN" "http://www.w3.org/Graphics/SVG/1.1/DTD/svg11.dtd">
<svg version="1.1" id="Layer_1" xmlns="http://www.w3.org/2000/svg" xmlns:xlink="http://www.w3.org/1999/xlink" x="0px" y="0px"
	 width="16px" height="16px" viewBox="0 0 16 16" enable-background="new 0 0 16 16" xml:space="preserve">
<path fill-rule="evenodd" clip-rule="evenodd" d="M8,8.333c-1.3,0-8-5.406-8-5.406V2.333C0,1.597,0.597,1,1.333,1h13.334
	C15.403,1,16,1.597,16,2.333L15.989,3C15.989,3,9.362,8.333,8,8.333z M8,10.166C9.425,10.166,15.989,5,15.989,5L16,12.75
	c0,0.736-0.597,1.332-1.333,1.332H1.333C0.597,14.082,0,13.486,0,12.75L0.01,5C0.01,5,6.7,10.166,8,10.166z"/>
</svg>
