<?xml version="1.0" encoding="utf-8"?>
<!-- Generator: Adobe Illustrator 16.0.0, SVG Export Plug-In . SVG Version: 6.00 Build 0)  -->
<!DOCTYPE svg PUBLIC "-//W3C//DTD SVG 1.1//EN" "http://www.w3.org/Graphics/SVG/1.1/DTD/svg11.dtd">
<svg version="1.1" id="Layer_1" xmlns="http://www.w3.org/2000/svg" xmlns:xlink="http://www.w3.org/1999/xlink" x="0px" y="0px"
	 width="16px" height="16px" viewBox="0 0 16 16" enable-background="new 0 0 16 16" xml:space="preserve">
<path d="M14.333,13.999h-0.666c0,0-0.667,0-0.667-0.667v-1.666c0-0.184-0.149-0.332-0.333-0.332s-0.334,0.148-0.334,0.332
	l-0.005,2.864c0,0.406-1.34,1.47-4.328,1.47s-4.328-1.063-4.328-1.47l-0.005-2.864c0-0.184-0.15-0.332-0.334-0.332
	S3,11.482,3,11.666v1.666c0,0.667-0.667,0.667-0.667,0.667H1.667c0,0-0.667,0-0.667-0.667V10.5c0-1.948,1.929-3.6,4.62-4.227
	c0,0,0.822,0.737,2.38,0.737s2.38-0.737,2.38-0.737C13.071,6.9,15,8.552,15,10.5v2.832C15,13.999,14.333,13.999,14.333,13.999z
	 M7.984,6c-1.656,0-3-1.344-3-3s1.343-3,3-3s3,1.344,3,3S9.642,6,7.984,6z"/>
</svg>
