<?xml version="1.0" encoding="utf-8"?>
<!-- Generator: Adobe Illustrator 16.0.0, SVG Export Plug-In . SVG Version: 6.00 Build 0)  -->
<!DOCTYPE svg PUBLIC "-//W3C//DTD SVG 1.1//EN" "http://www.w3.org/Graphics/SVG/1.1/DTD/svg11.dtd">
<svg version="1.1" id="Layer_1" xmlns="http://www.w3.org/2000/svg" xmlns:xlink="http://www.w3.org/1999/xlink" x="0px" y="0px"
	 width="16px" height="16px" viewBox="0 0 16 16" enable-background="new 0 0 16 16" xml:space="preserve">
<g>
	<g>
		<path fill-rule="evenodd" clip-rule="evenodd" d="M15.5,1H0.502c-0.275,0-0.5,0.24-0.5,0.534v1.948c0,0.282,0.225,0.513,0.5,0.513
			H15.5c0.275,0,0.5-0.23,0.5-0.513V1.534C16,1.24,15.775,1,15.5,1z M15.5,6H0.502c-0.275,0-0.5,0.24-0.5,0.534v1.947
			c0,0.283,0.225,0.514,0.5,0.514H15.5c0.275,0,0.5-0.23,0.5-0.514V6.534C16,6.24,15.775,6,15.5,6z M15.5,11H0.502
			c-0.275,0-0.5,0.24-0.5,0.534v1.947c0,0.283,0.225,0.514,0.5,0.514H15.5c0.275,0,0.5-0.23,0.5-0.514v-1.947
			C16,11.24,15.775,11,15.5,11z"/>
	</g>
</g>
</svg>
