<?xml version="1.0" encoding="utf-8"?>
<!-- Generator: Adobe Illustrator 16.0.0, SVG Export Plug-In . SVG Version: 6.00 Build 0)  -->
<!DOCTYPE svg PUBLIC "-//W3C//DTD SVG 1.1//EN" "http://www.w3.org/Graphics/SVG/1.1/DTD/svg11.dtd">
<svg version="1.1" id="Layer_1" xmlns="http://www.w3.org/2000/svg" xmlns:xlink="http://www.w3.org/1999/xlink" x="0px" y="0px"
	 width="16px" height="16px" viewBox="0 0 16 16" enable-background="new 0 0 16 16" xml:space="preserve">
<path fill-rule="evenodd" clip-rule="evenodd" d="M15.008,3.902c-0.34-0.562-0.758-1.111-1.271-1.621
	c-0.518-0.515-1.078-0.937-1.65-1.275L13.092,0c0,0,1.455,0,2.182,0.728S16,2.91,16,2.91L15.008,3.902z M6.051,12.989H3.012V9.95
	l0.365-0.364c0.618,0.29,1.231,0.701,1.784,1.254c0.553,0.553,0.964,1.167,1.255,1.784L6.051,12.989z M14.168,4.743l-6.875,7.004
	C6.938,11.16,6.5,10.586,5.965,10.054C5.423,9.516,4.839,9.075,4.242,8.721l7.018-6.888c0.59,0.278,1.178,0.672,1.707,1.201
	S13.889,4.15,14.168,4.743z M2,2.001V14h12V9l2-1.999v7.545C16,15.35,15.35,16,14.547,16H1.455C0.651,16,0,15.35,0,14.546V1.455
	C0,0.65,0.651,0,1.455,0H9L7,2.001H2z"/>
</svg>
