<?xml version="1.0" encoding="utf-8"?>
<!-- Generator: Adobe Illustrator 16.0.0, SVG Export Plug-In . SVG Version: 6.00 Build 0)  -->
<!DOCTYPE svg PUBLIC "-//W3C//DTD SVG 1.1//EN" "http://www.w3.org/Graphics/SVG/1.1/DTD/svg11.dtd">
<svg version="1.1" id="Layer_1" xmlns="http://www.w3.org/2000/svg" xmlns:xlink="http://www.w3.org/1999/xlink" x="0px" y="0px"
	 width="16px" height="16px" viewBox="0 0 16 16" enable-background="new 0 0 16 16" xml:space="preserve">
<path d="M15,10.001h-5V15c0,0.553-0.447,1-1,1H8c-0.552,0-1-0.447-1-1v-4.999H2c-0.552,0-1-0.448-1-1V8c0-0.553,0.448-0.999,1-0.999
	h5v-5C7,1.448,7.448,1,8,1h1c0.553,0,1,0.448,1,1.001v5h5c0.553,0,1,0.446,1,0.999v1.001C16,9.553,15.553,10.001,15,10.001z"/>
</svg>
