<?xml version="1.0" encoding="utf-8"?>
<!-- Generator: Adobe Illustrator 16.0.0, SVG Export Plug-In . SVG Version: 6.00 Build 0)  -->
<!DOCTYPE svg PUBLIC "-//W3C//DTD SVG 1.1//EN" "http://www.w3.org/Graphics/SVG/1.1/DTD/svg11.dtd">
<svg version="1.1" id="Layer_1" xmlns="http://www.w3.org/2000/svg" xmlns:xlink="http://www.w3.org/1999/xlink" x="0px" y="0px"
	 width="16px" height="16px" viewBox="0 0 16 16" enable-background="new 0 0 16 16" xml:space="preserve">
<path fill-rule="evenodd" clip-rule="evenodd" d="M14.349,6.766c-0.272-0.039-0.563-0.286-0.647-0.547l-0.407-0.987
	c-0.128-0.244-0.098-0.623,0.067-0.843l0.659-0.88c0.165-0.22,0.151-0.567-0.031-0.774L13.267,2.01
	c-0.206-0.181-0.555-0.195-0.775-0.029L11.614,2.64c-0.221,0.164-0.6,0.195-0.843,0.067L9.784,2.301
	C9.521,2.217,9.275,1.926,9.237,1.652L9.081,0.566C9.043,0.295,8.787,0.048,8.514,0.019c0,0-0.17-0.019-0.513-0.019
	S7.488,0.019,7.488,0.019C7.215,0.048,6.959,0.295,6.921,0.566L6.765,1.652C6.727,1.926,6.48,2.217,6.218,2.301L5.231,2.707
	C4.988,2.835,4.608,2.804,4.389,2.64L3.51,1.98C3.29,1.814,2.941,1.829,2.735,2.01L2.013,2.734C1.831,2.941,1.816,3.289,1.981,3.509
	l0.659,0.88c0.165,0.22,0.195,0.599,0.067,0.843L2.301,6.219C2.218,6.479,1.926,6.727,1.653,6.766L0.567,6.92
	C0.295,6.959,0.05,7.215,0.021,7.488c0,0-0.019,0.17-0.019,0.513s0.019,0.513,0.019,0.513C0.05,8.788,0.295,9.043,0.567,9.082
	l1.086,0.155c0.272,0.039,0.564,0.285,0.647,0.547l0.407,0.987c0.128,0.244,0.098,0.623-0.067,0.843l-0.659,0.879
	c-0.165,0.22-0.204,0.519-0.088,0.663c0.117,0.144,0.451,0.502,0.452,0.502c0.001,0.001,0.114,0.104,0.25,0.23
	c0.137,0.124,0.694,0.298,0.914,0.133l0.879-0.659c0.22-0.165,0.6-0.194,0.843-0.067l0.986,0.406
	c0.263,0.085,0.509,0.376,0.547,0.648l0.156,1.086c0.038,0.273,0.294,0.52,0.567,0.548c0,0,0.17,0.019,0.513,0.019
	s0.513-0.019,0.513-0.019c0.273-0.028,0.529-0.274,0.567-0.548l0.156-1.086c0.038-0.272,0.284-0.563,0.547-0.648l0.987-0.406
	c0.243-0.128,0.622-0.098,0.843,0.067l0.879,0.659c0.22,0.165,0.568,0.151,0.774-0.029l0.723-0.725
	c0.182-0.206,0.195-0.555,0.03-0.774l-0.659-0.879c-0.165-0.22-0.195-0.599-0.067-0.843l0.407-0.987
	c0.084-0.262,0.375-0.508,0.647-0.547l1.086-0.155c0.272-0.039,0.519-0.294,0.548-0.568c0,0,0.018-0.17,0.018-0.513
	s-0.018-0.513-0.018-0.513c-0.029-0.273-0.275-0.529-0.548-0.568L14.349,6.766z M8.001,10.002c-1.104,0-2-0.896-2-2.001
	c0-1.104,0.896-2,2-2s2,0.896,2,2C10.001,9.106,9.105,10.002,8.001,10.002z"/>
</svg>
