<?xml version="1.0" encoding="utf-8"?>
<!-- Generator: Adobe Illustrator 16.0.0, SVG Export Plug-In . SVG Version: 6.00 Build 0)  -->
<!DOCTYPE svg PUBLIC "-//W3C//DTD SVG 1.1//EN" "http://www.w3.org/Graphics/SVG/1.1/DTD/svg11.dtd">
<svg version="1.1" id="Layer_1" xmlns="http://www.w3.org/2000/svg" xmlns:xlink="http://www.w3.org/1999/xlink" x="0px" y="0px"
	 width="16px" height="16px" viewBox="0 0 16 16" enable-background="new 0 0 16 16" xml:space="preserve">
<g>
	<g>
		<path fill-rule="evenodd" clip-rule="evenodd" d="M7.706,1.01c-0.756,0-0.985,0.435-0.985,0.435S3.86,4.822,2.556,4.822
			c-1.284,0-1.271,0-1.271,0C0.574,4.822,0,5.393,0,6.094v3.813c0,0.701,0.574,1.271,1.284,1.271c0,0,0.02,0,1.284,0
			c1.266,0,4.212,3.42,4.212,3.42c0.233,0.241,0.561,0.393,0.926,0.393c0.709,0,1.284-0.568,1.284-1.271V2.281
			C8.99,1.579,8.415,1.01,7.706,1.01z M13.187,2.232l-0.741,1.109C13.8,4.441,14.667,6.119,14.667,8
			c0,1.882-0.867,3.559-2.222,4.659l0.741,1.108C14.897,12.426,16,10.344,16,8S14.897,3.575,13.187,2.232z M11.7,4.458l-0.748,1.12
			C11.598,6.186,12.005,7.043,12.005,8c0,0.958-0.407,1.814-1.053,2.424l0.748,1.119c0.998-0.856,1.634-2.124,1.634-3.543
			C13.334,6.582,12.698,5.313,11.7,4.458z"/>
	</g>
</g>
</svg>
